<?xml version="1.0" encoding="utf-8"?>
<!-- Generator: Adobe Illustrator 26.0.3, SVG Export Plug-In . SVG Version: 6.00 Build 0)  -->
<svg version="1.1" id="Layer_1" xmlns="http://www.w3.org/2000/svg" xmlns:xlink="http://www.w3.org/1999/xlink" x="0px" y="0px"
	 viewBox="0 0 55.8 53.3" style="enable-background:new 0 0 55.8 53.3;" xml:space="preserve">
<style type="text/css">
	.st0{fill:none;stroke:#42210B;stroke-width:0.8076;stroke-linecap:round;stroke-linejoin:round;stroke-miterlimit:4.1667;}
	.st1{fill:none;stroke:#42210B;stroke-width:0.7664;stroke-linecap:round;stroke-linejoin:round;stroke-miterlimit:4.1667;}
	.st2{fill:none;stroke:#42210B;stroke-width:0.2294;stroke-linecap:round;stroke-linejoin:round;stroke-miterlimit:4.1667;}
</style>
<path class="st0" d="M24.9,25.4V23c0-2,1.7-3.5,3.7-3.5s3.7,1.6,3.7,3.5v2.4"/>
<path class="st1" d="M32.5,27.1c0,0.4-0.4,0.7-0.9,0.7h-0.4c-0.5,0-0.9-0.3-0.9-0.7v-1c0-0.4,0.4-0.7,0.9-0.7h1.3V27.1z M24.7,27.1
	c0,0.4,0.4,0.7,0.9,0.7H26c0.5,0,0.9-0.3,0.9-0.7v-1c0-0.4-0.4-0.7-0.9-0.7h-1.3V27.1z"/>
<circle class="st2" cx="28.6" cy="24.6" r="12.3"/>
</svg>
